<?xml version="1.0" encoding="utf-8"?>
<!-- Generator: Adobe Illustrator 18.0.0, SVG Export Plug-In . SVG Version: 6.00 Build 0)  -->
<!DOCTYPE svg PUBLIC "-//W3C//DTD SVG 1.1//EN" "http://www.w3.org/Graphics/SVG/1.1/DTD/svg11.dtd">
<svg version="1.1" id="Layer_1" xmlns="http://www.w3.org/2000/svg" xmlns:xlink="http://www.w3.org/1999/xlink" x="0px" y="0px"
	 viewBox="0 0 612 792" enable-background="new 0 0 612 792" xml:space="preserve">
<path d="M25.5,5.7c-1-0.6-2.7,0.4-3.7,2.1L20,11c-0.7,1.3-0.6,2.9,0.3,4.1l0.1,0.1c0.8,1.2,2,2.3,2.4,2.7c0.2,0.2,0.4,0.5,0.5,0.9
	c0.3,1.1-0.3,2.2-1.4,2.6c-1.1,0.3-2.2-0.3-2.6-1.4c-0.1-0.3-0.1-0.6-0.1-0.8c0.1-0.5-0.1-1.2-0.7-1.9c-0.7-0.7-2,0.6-2.4,2.1l0,0.1
	c-0.4,1.4-0.7,2.7-0.6,2.8c0,0.1,0.1,0.1,0.1,0.2c0.6,1.1,0.2,2.6-1,3.2c-1.1,0.6-2.6,0.2-3.2-1c-0.6-1.1-0.2-2.6,1-3.2
	c0.1,0,0.1-0.1,0.2-0.1c0.1,0,0.3-0.6,0.5-1.3c0.2-0.7,0.4-1.3,0.4-1.3c0-0.1,0-0.1,0.1-0.2l1.2-4.1l-1.2,2.5
	c-0.1-0.5-0.4-0.5-0.9-0.1c-0.3,0.2-0.8,0.7-1.1,0.9c-0.5,0.3-0.9,1-1.1,1.4c-0.1,0.2-0.3,0.5-0.5,0.6c-0.9,0.7-2.2,0.6-2.9-0.3
	s-0.6-2.2,0.3-2.9c0.3-0.2,0.6-0.3,0.9-0.4c0.5-0.1,2.3-1.2,3.3-2c0.2-0.1,0.4-0.3,0.5-0.4l2.8-2.2l-2.5,1.3c0,0-0.3,0-0.6,0
	c-0.9,0.1-1.8,0.2-2,0.5c-0.1,0.1-0.2,0.3-0.4,0.4c-0.8,0.6-2,0.4-2.6-0.4c-0.6-0.8-0.4-2,0.4-2.6c0.3-0.2,0.7-0.4,1.1-0.3
	c0.7,0,2.4,0.4,3.9,0.1l0.4-0.1c1.5-0.3,3.2-1.5,3.9-2.8c0,0,0.7-1.2,1.5-2.7c0.8-1.5,0.8-3.1-0.1-3.6L16,0.4c-0.8-0.5-2.2-0.5-3,0
	L1.5,6.8C0.7,7.3,0,8.4,0,9.4V22c0,1,0.7,2.1,1.5,2.6L12.9,31c0.8,0.5,2.2,0.5,3,0l11.4-6.4c0.8-0.5,1.5-1.6,1.5-2.6V9.4
	c0-1-0.7-2.1-1.5-2.6C27.4,6.8,26.5,6.3,25.5,5.7z"/>
</svg>
