<?xml version="1.0" encoding="utf-8"?>
<!-- Generator: Adobe Illustrator 18.0.0, SVG Export Plug-In . SVG Version: 6.00 Build 0)  -->
<!DOCTYPE svg PUBLIC "-//W3C//DTD SVG 1.1//EN" "http://www.w3.org/Graphics/SVG/1.1/DTD/svg11.dtd">
<svg version="1.1" id="Layer_1" xmlns="http://www.w3.org/2000/svg" xmlns:xlink="http://www.w3.org/1999/xlink" x="0px" y="0px"
	 viewBox="0 0 83.7 39.8" enable-background="new 0 0 83.7 39.8" xml:space="preserve">
<g>
	<g>
		<path d="M0,33.7L2.8,30c2.5,2.8,6.7,5.5,12.1,5.5c6.9,0,9.1-3.7,9.1-6.6c0-9.9-22.8-4.4-22.8-18.2C1.2,4.3,6.9,0,14.4,0
			c5.9,0,10.5,2,13.7,5.4l-2.9,3.5c-2.9-3.2-6.9-4.6-11.1-4.6c-4.6,0-7.9,2.5-7.9,6.1c0,8.7,22.8,3.7,22.8,18.1
			c0,5.6-3.8,11.3-14.2,11.3C8.1,39.8,3.2,37.3,0,33.7z"/>
	</g>
</g>
<g>
	<g>
		<path d="M29.5,39.1V0.6h17.2c6.7,0,10.8,4,10.8,9.8c0,4.9-3.2,8.1-6.8,8.8c4.1,0.6,7.5,4.9,7.5,9.5c0,6.2-4.1,10.4-11.1,10.4H29.5
			z M52.5,11.1c0-3.5-2.3-6.2-6.6-6.2H34.3v12.4h11.6C50.2,17.3,52.5,14.6,52.5,11.1z M53.2,28.2c0-3.5-2.4-6.6-7.2-6.6H34.3v13.3
			h11.8C50.6,34.8,53.2,32.3,53.2,28.2z"/>
	</g>
</g>
<g>
	<path d="M58.4,39.1V0.6h25.2v4.3H63.2v12.4h20v4.3h-20v17.6H58.4z"/>
</g>
</svg>
